<svg width="297" height="104" viewBox="0 0 297 104" fill="none" xmlns="http://www.w3.org/2000/svg">
<path d="M85.8641 1.5428C82.4359 2.38547 75.5155 4.0127 70.4854 5.20406L61.3864 7.35432L69.8126 8.89437C74.4582 9.73704 78.3349 10.4925 78.399 10.5507C78.6233 10.725 75.7398 14.7059 73.5291 17.263C71.3184 19.8491 67.3456 23.3941 63.9175 25.864C53.5689 33.3318 39.7281 37.7486 24.8301 38.3007L19.7039 38.475L23.5165 38.8818C28.867 39.4339 38.5747 39.1724 43.8932 38.3297C54.9786 36.5572 65.7757 32.402 74.0097 26.7067C77.1815 24.5274 82.2757 20.1397 84.2942 17.8441C85.9602 15.9263 85.3194 15.1127 89.7087 24.6727C91.5029 28.5954 93.0728 31.8499 93.1689 31.9371C93.233 32.0242 93.233 30.6295 93.1048 28.886C93.0087 27.1135 92.9126 20.1978 92.9126 13.4564C92.8806 1.92055 92.7844 -0.0844269 92.3039 0.00274658C92.2077 0.0318031 89.2922 0.729187 85.8641 1.5428Z" fill="white"/>
<path d="M115.019 63.3194V102.257H113.417H111.816V67.9686V33.6806H104.286H96.7573V67.9686V102.257H94.6748H92.5922V73.0536V43.8508H85.2233H77.8544V73.0536V102.257H76.2524H74.6505V74.9424V47.6282H67.1214H59.5922V74.9424V102.257H57.9903H56.3884V77.8482V53.4398H48.8592H41.3301V77.8482V102.257H39.7282H38.1262V80.6086V58.9607L30.6932 59.0188L23.2282 59.106L23.132 80.6667L23.068 102.257H21.466H19.8641V84.2408V66.2251H12.4951H5.12621V84.2408V102.257H2.56311H0V103.128V104H67.3136H134.595L134.499 103.186C134.403 102.431 134.339 102.402 132.096 102.315L129.757 102.227V63.3194V24.3822H122.388H115.019V63.3194Z" fill="white"/>
<path d="M187.812 41.4682C185.249 42.3109 183.615 43.7638 182.621 46.1175C181.788 48.0934 181.82 50.0984 182.653 52.1324C183.486 54.1374 185.056 55.5902 187.331 56.5491C188.901 57.2175 189.414 57.2756 192.329 57.1593C194.123 57.1012 195.789 56.9559 196.014 56.8397C196.27 56.6654 196.398 55.5612 196.398 53.0332C196.398 50.6795 196.526 49.3719 196.783 49.1395C197.071 48.8779 196.783 48.7908 195.469 48.7908C193.931 48.7908 193.835 48.8198 194.283 49.2557C194.7 49.6044 194.796 50.3889 194.796 52.8588V55.997L193.803 56.3167C191.368 57.0722 188.292 56.2876 186.146 54.3408C183.006 51.4931 182.685 47.0473 185.441 44.1415C186.754 42.7468 187.844 42.1947 190.022 41.8169C192.009 41.4682 193.931 41.8169 194.988 42.7177L195.757 43.357V42.4853C195.757 41.3811 195.373 41.2067 192.073 41.0614C190.086 40.9452 189.125 41.0614 187.812 41.4682Z" fill="white"/>
<path d="M141.932 41.7876C142.124 42.1363 142.252 45.013 142.252 49.1391C142.252 54.8054 142.156 56.0258 141.74 56.5779C141.259 57.2172 141.259 57.2172 142.925 57.2172C144.207 57.2172 144.495 57.13 144.239 56.8394C144.047 56.636 143.854 54.8054 143.822 52.7132L143.758 48.9357L144.495 49.0229C144.912 49.052 145.296 49.1101 145.296 49.1682C145.328 49.1973 146.546 50.8245 147.987 52.8004C150.038 55.5899 150.871 56.4907 151.704 56.8103C153.498 57.4787 153.915 57.3334 152.857 56.4035C152.345 55.9677 150.807 54.108 149.493 52.2774L147.058 48.9648L148.404 48.3546C150.326 47.541 151.319 46.0881 151.127 44.4899C150.839 42.0781 149.173 41.2355 144.655 41.2355C141.708 41.2355 141.612 41.2645 141.932 41.7876ZM147.122 42.1653C149.365 42.7755 150.23 44.5771 149.141 46.4658C148.852 46.9308 148.212 47.5119 147.699 47.7734C146.546 48.3255 143.854 48.3546 143.822 47.8315C143.79 47.4247 143.79 43.0661 143.822 42.3106C143.854 41.7004 145.232 41.6423 147.122 42.1653Z" fill="white"/>
<path d="M166.218 41.5843C166.506 41.8458 166.602 43.9089 166.602 49.1102C166.602 55.2704 166.538 56.3746 166.089 56.7524C165.641 57.1882 165.769 57.2173 167.435 57.2173C169.197 57.2173 169.229 57.1882 168.749 56.6942C168.268 56.2293 168.204 55.2704 168.204 49.2555C168.204 45.0712 168.332 42.1364 168.524 41.7877C168.845 41.2647 168.749 41.2356 167.339 41.2356C166.185 41.2356 165.929 41.3228 166.218 41.5843Z" fill="white"/>
<path d="M210.816 41.7877C211.008 42.1364 211.136 45.0131 211.136 49.1393C211.136 54.8055 211.04 56.0259 210.623 56.578C210.143 57.2173 210.143 57.2173 211.809 57.2173C213.122 57.2173 213.411 57.1301 213.122 56.8686C212.866 56.6361 212.738 55.2704 212.738 52.6552V48.7615L216.999 48.8487L221.228 48.9359L221.324 52.51C221.356 54.6312 221.26 56.2874 221.068 56.6361C220.748 57.1882 220.812 57.2173 222.382 57.2173C223.984 57.2173 224.016 57.1882 223.535 56.6942C223.054 56.2293 222.99 55.2704 222.99 49.2555C222.99 45.0712 223.118 42.1364 223.311 41.7877C223.631 41.2647 223.535 41.2356 222.125 41.2356C220.972 41.2356 220.716 41.3228 221.004 41.5843C221.26 41.8168 221.388 43.0081 221.388 45.0712V48.2094H217.063H212.738L212.706 47.3958C212.642 44.2866 212.834 41.6424 213.154 41.4681C213.379 41.3518 212.834 41.2356 212.001 41.2356C210.591 41.2356 210.495 41.2647 210.816 41.7877Z" fill="white"/>
<path d="M235.421 41.962C235.229 42.8047 235.261 42.8338 236.254 42.2236C236.767 41.933 237.6 41.8168 238.753 41.8749L240.451 41.962V49.1102C240.451 54.7474 240.355 56.3456 240.003 56.7233C239.618 57.1592 239.715 57.2173 241.22 57.2173H242.854L242.374 56.5199C241.957 55.9678 241.893 54.7764 241.957 48.9068L242.053 41.962L243.751 41.8749C244.905 41.8168 245.738 41.933 246.218 42.2236C246.987 42.6885 247.244 42.6013 247.212 41.8168C247.18 41.439 246.283 41.3809 241.381 41.2937L235.55 41.2356L235.421 41.962Z" fill="white"/>
<path d="M265.121 73.3443C262.718 74.216 261.116 75.7561 260.187 77.9354C258.97 80.9574 259.579 83.9503 261.853 86.1878C264.352 88.6867 267.909 89.4713 272.298 88.5414C273.932 88.2218 273.932 88.2218 273.932 87.0304V85.8681L273.067 86.798C269.703 90.314 262.142 87.0304 261.245 81.6548C260.764 78.6909 262.494 75.4655 265.346 74.1289C268.069 72.8503 272.234 73.3443 272.971 75.0296C273.195 75.5527 273.259 75.4655 273.259 74.5066C273.291 73.3443 273.259 73.3152 271.849 72.9666C269.575 72.4145 267.268 72.5598 265.121 73.3443Z" fill="white"/>
<path d="M141.932 73.4605C142.124 73.8092 142.252 76.7441 142.252 80.9284C142.252 86.9433 142.188 87.9022 141.708 88.3671C141.227 88.8611 141.259 88.8901 143.021 88.8901C144.687 88.8901 144.816 88.8611 144.367 88.4252C143.95 88.0765 143.854 87.2339 143.854 84.2119V80.4634H146.385C148.276 80.4634 149.077 80.5797 149.429 80.9284C149.91 81.3352 149.942 81.277 149.942 80.1729C149.942 79.0687 149.91 79.0106 149.429 79.4174C149.077 79.766 148.276 79.8823 146.385 79.8823H143.854V76.6859V73.4896H146.834C149.013 73.4896 150.006 73.6058 150.518 73.9545C151.191 74.3613 151.223 74.3613 151.223 73.664V72.9085H146.417C141.74 72.9085 141.612 72.9375 141.932 73.4605Z" fill="white"/>
<path d="M163.975 73.2571C164.263 73.5187 164.359 75.5818 164.359 80.7249C164.359 86.9142 164.295 87.9022 163.815 88.3671C163.334 88.8611 163.366 88.8901 165.16 88.8901C166.954 88.8901 166.986 88.8611 166.506 88.3671C166.025 87.9022 165.961 86.9433 165.961 80.9284C165.961 76.7441 166.089 73.8092 166.282 73.4605C166.602 72.9375 166.506 72.9085 165.096 72.9085C163.943 72.9085 163.686 72.9956 163.975 73.2571Z" fill="white"/>
<path d="M180.699 73.4605C180.891 73.8092 181.019 76.6859 181.019 80.8121C181.019 86.4784 180.923 87.6988 180.507 88.2509C180.026 88.8901 180.026 88.8901 181.372 88.8901C182.653 88.8901 182.685 88.8611 182.205 88.3671C181.724 87.9022 181.66 86.9723 181.66 81.3061C181.692 75.4074 181.724 74.8553 182.173 75.3783C182.429 75.698 184.672 78.8653 187.139 82.4103C190.439 87.1757 191.816 88.8901 192.265 88.8901C192.585 88.8901 192.874 88.7158 192.906 88.5124C192.906 88.338 192.906 85.0836 192.874 81.3061C192.874 77.2671 192.97 74.1579 193.162 73.693C193.482 72.9375 193.45 72.9085 192.521 72.9085C191.688 72.9085 191.592 72.9956 191.881 73.3153C192.137 73.5768 192.233 75.6399 192.169 80.2019L192.073 86.6818L187.267 79.7951C182.589 73.1119 182.429 72.9085 181.404 72.9085C180.475 72.9085 180.379 72.9666 180.699 73.4605Z" fill="white"/>
<path d="M233.563 73.4606C233.755 73.8092 233.883 76.686 233.883 80.8121C233.883 86.4784 233.787 87.6988 233.371 88.2509C232.89 88.8901 232.89 88.8901 234.236 88.8901C235.517 88.8901 235.55 88.8611 235.069 88.3671C234.588 87.9022 234.524 86.9723 234.524 81.3061C234.556 75.4074 234.588 74.8553 235.037 75.3784C235.293 75.698 237.536 78.8653 240.003 82.4103C243.303 87.1757 244.681 88.8901 245.129 88.8901C245.834 88.8901 245.802 89.4422 245.738 80.4344C245.706 77.0056 245.834 74.1579 246.026 73.693C246.347 72.9375 246.315 72.9085 245.385 72.9085C244.552 72.9085 244.456 72.9956 244.745 73.3153C245.001 73.5768 245.097 75.6689 245.033 80.2019L244.937 86.7108L240.131 79.8242C235.453 73.1119 235.293 72.9085 234.268 72.9085C233.339 72.9085 233.243 72.9666 233.563 73.4606Z" fill="white"/>
<path d="M287.068 73.4605C287.26 73.8092 287.388 76.6859 287.388 80.8121C287.388 86.4784 287.292 87.6988 286.876 88.2509L286.395 88.8901H291.682H297V87.815V86.7399L296.359 87.3791C295.75 87.9603 295.366 88.0184 292.354 88.0184H288.99V84.2409V80.4634H291.521C293.412 80.4634 294.213 80.5797 294.565 80.9284C295.046 81.3352 295.078 81.277 295.078 80.1729C295.078 79.0687 295.046 79.0106 294.565 79.4174C294.213 79.766 293.412 79.8823 291.521 79.8823H288.99V76.6859V73.4896H291.97C294.149 73.4896 295.142 73.6058 295.654 73.9545C296.327 74.3613 296.359 74.3613 296.359 73.664V72.9085H291.553C286.876 72.9085 286.748 72.9375 287.068 73.4605Z" fill="white"/>
<path d="M212.834 74.1289C211.52 77.8192 206.907 88.2218 206.426 88.5124C205.978 88.832 206.074 88.8901 207.227 88.8901C208.445 88.8901 208.573 88.832 208.285 88.3671C208.092 88.0184 208.349 87.0014 209.182 84.8221L210.399 81.771H212.898H215.397L216.647 84.8221C217.64 87.2048 217.832 87.9894 217.576 88.3671C217.255 88.832 217.384 88.8901 218.985 88.8901C220.684 88.8901 220.716 88.8611 220.171 88.3671C219.851 88.0765 218.249 84.5315 216.583 80.5215C214.949 76.4825 213.507 73.199 213.379 73.199C213.251 73.199 213.026 73.6349 212.834 74.1289ZM214.116 78.3713C214.596 79.6208 214.981 80.7249 214.981 80.8412C214.981 80.9574 214.051 81.0446 212.898 81.0446C211.745 81.0446 210.816 80.9284 210.816 80.7831C210.816 80.5215 212.353 76.715 212.61 76.3373C212.962 75.8142 213.251 76.221 214.116 78.3713Z" fill="white"/>
</svg>
