<svg width="210" height="75" viewBox="0 0 210 75" fill="none" xmlns="http://www.w3.org/2000/svg">
<path d="M60.93 2.06004C58.5118 2.65995 53.6302 3.81838 50.082 4.66652L43.6636 6.19731L49.6074 7.29368C52.8844 7.89358 55.619 8.43143 55.6642 8.4728C55.8224 8.59692 53.7884 11.4309 52.229 13.2513C50.6696 15.0924 47.8672 17.6162 45.449 19.3745C38.1492 24.6909 28.386 27.8352 17.877 28.2282L14.261 28.3523L16.9504 28.642C20.7246 29.035 27.5724 28.8488 31.324 28.2489C39.1436 26.987 46.7598 24.0289 52.568 19.9744C54.8054 18.4229 58.3988 15.2993 59.8226 13.6651C60.9978 12.2998 60.5458 11.7206 63.642 18.5263C64.9076 21.319 66.015 23.6359 66.0828 23.6979C66.128 23.76 66.128 22.767 66.0376 21.5259C65.9698 20.264 65.902 15.3407 65.902 10.5414C65.8794 2.32897 65.8116 0.901609 65.4726 0.963669C65.4048 0.984356 63.3482 1.48083 60.93 2.06004Z" fill="#225479"/>
<path d="M81.496 46.0392V73.7588H80.366H79.236V49.349V24.9391H73.925H68.614V49.349V73.7588H67.145H65.676V52.9691V32.1793H60.478H55.28V52.9691V73.7588H54.15H53.02V54.3137V34.8686H47.709H42.398V54.3137V73.7588H41.268H40.138V56.3823V39.0058H34.827H29.516V56.3823V73.7588H28.386H27.256V58.3475V42.9362L22.0128 42.9776L16.747 43.0396L16.6792 58.3889L16.634 73.7588H15.504H14.374V60.9333V48.1078H9.176H3.978V60.9333V73.7588H2.17H0.362V74.3794V75H47.8446H95.3046L95.2368 74.4208C95.169 73.8829 95.1238 73.8623 93.5418 73.8002L91.892 73.7381V46.0392V18.3195H86.694H81.496V46.0392Z" fill="#225479"/>
<path d="M132.843 30.4831C131.035 31.083 129.883 32.1173 129.182 33.7929C128.594 35.1995 128.617 36.6269 129.205 38.0749C129.792 39.5023 130.9 40.5366 132.504 41.2193C133.612 41.6951 133.973 41.7364 136.03 41.6537C137.295 41.6123 138.471 41.5089 138.629 41.4261C138.81 41.302 138.9 40.5159 138.9 38.7162C138.9 37.0406 138.99 36.1097 139.171 35.9443C139.375 35.7581 139.171 35.696 138.245 35.696C137.16 35.696 137.092 35.7167 137.408 36.027C137.702 36.2752 137.77 36.8338 137.77 38.5921V40.8262L137.069 41.0538C135.352 41.5916 133.182 41.0331 131.668 39.6471C129.453 37.6198 129.227 34.4548 131.171 32.3862C132.097 31.3933 132.866 31.0002 134.403 30.7313C135.804 30.4831 137.16 30.7313 137.906 31.3726L138.448 31.8277V31.2071C138.448 30.421 138.177 30.2969 135.849 30.1935C134.448 30.1107 133.77 30.1935 132.843 30.4831Z" fill="#225479"/>
<path d="M100.48 30.7106C100.616 30.9589 100.706 33.0068 100.706 35.9443C100.706 39.9781 100.638 40.8469 100.344 41.24C100.005 41.6951 100.005 41.6951 101.181 41.6951C102.085 41.6951 102.288 41.633 102.107 41.4261C101.972 41.2813 101.836 39.9781 101.813 38.4887L101.768 35.7995L102.288 35.8615C102.582 35.8822 102.853 35.9236 102.853 35.9649C102.876 35.9856 103.734 37.1441 104.751 38.5507C106.198 40.5366 106.785 41.1779 107.373 41.4054C108.639 41.8812 108.932 41.7778 108.187 41.1158C107.825 40.8055 106.74 39.4816 105.814 38.1784L104.096 35.8201L105.045 35.3857C106.401 34.8065 107.102 33.7722 106.966 32.6344C106.763 30.9175 105.588 30.3176 102.401 30.3176C100.322 30.3176 100.254 30.3383 100.48 30.7106ZM104.141 30.9795C105.723 31.414 106.333 32.6965 105.565 34.0411C105.362 34.3721 104.91 34.7858 104.548 34.972C103.734 35.365 101.836 35.3857 101.813 35.0134C101.791 34.7238 101.791 31.6208 101.813 31.083C101.836 30.6486 102.808 30.6072 104.141 30.9795Z" fill="#225479"/>
<path d="M117.611 30.5658C117.814 30.752 117.882 32.2207 117.882 35.9236C117.882 40.3091 117.837 41.0951 117.52 41.3641C117.204 41.6744 117.294 41.695 118.47 41.695C119.713 41.695 119.735 41.6744 119.396 41.3227C119.057 40.9917 119.012 40.3091 119.012 36.027C119.012 33.0482 119.102 30.9588 119.238 30.7106C119.464 30.3383 119.396 30.3176 118.402 30.3176C117.588 30.3176 117.407 30.3796 117.611 30.5658Z" fill="#225479"/>
<path d="M149.07 30.7106C149.206 30.9588 149.296 33.0068 149.296 35.9442C149.296 39.9781 149.228 40.8469 148.934 41.2399C148.595 41.695 148.595 41.695 149.771 41.695C150.697 41.695 150.901 41.633 150.697 41.4468C150.516 41.2813 150.426 40.3091 150.426 38.4473V35.6753L153.432 35.7374L156.415 35.7994L156.483 38.3439C156.505 39.854 156.438 41.0331 156.302 41.2813C156.076 41.6744 156.121 41.695 157.229 41.695C158.359 41.695 158.381 41.6744 158.042 41.3227C157.703 40.9917 157.658 40.3091 157.658 36.027C157.658 33.0482 157.748 30.9588 157.884 30.7106C158.11 30.3383 158.042 30.3176 157.048 30.3176C156.234 30.3176 156.053 30.3796 156.257 30.5658C156.438 30.7313 156.528 31.5794 156.528 33.0482V35.2823H153.477H150.426L150.403 34.7031C150.358 32.4896 150.494 30.6072 150.72 30.4831C150.878 30.4003 150.494 30.3176 149.906 30.3176C148.912 30.3176 148.844 30.3383 149.07 30.7106Z" fill="#225479"/>
<path d="M166.427 30.8347C166.291 31.4346 166.314 31.4553 167.014 31.0209C167.376 30.814 167.964 30.7313 168.777 30.7727L169.975 30.8347V35.9236C169.975 39.9367 169.907 41.0744 169.659 41.3434C169.387 41.6537 169.455 41.695 170.517 41.695H171.67L171.331 41.1986C171.037 40.8055 170.992 39.9574 171.037 35.7788L171.105 30.8347L172.303 30.7727C173.116 30.7313 173.704 30.814 174.043 31.0209C174.585 31.3519 174.766 31.2898 174.744 30.7313C174.721 30.4624 174.088 30.421 170.63 30.3589L166.517 30.3176L166.427 30.8347Z" fill="#225479"/>
<path d="M187.377 53.1759C185.682 53.7965 184.552 54.8929 183.897 56.4444C183.038 58.5957 183.467 60.7264 185.072 62.3193C186.835 64.0983 189.343 64.6568 192.439 63.9949C193.592 63.7673 193.592 63.7673 193.592 62.9192V62.0917L192.982 62.7537C190.609 65.2567 185.275 62.9192 184.642 59.0922C184.303 56.9822 185.524 54.686 187.535 53.7344C189.456 52.8242 192.394 53.1759 192.914 54.3757C193.072 54.7481 193.117 54.686 193.117 54.0034C193.14 53.1759 193.117 53.1552 192.123 52.907C190.518 52.514 188.891 52.6174 187.377 53.1759Z" fill="#225479"/>
<path d="M100.48 53.2587C100.616 53.5069 100.706 55.5963 100.706 58.5751C100.706 62.8572 100.661 63.5398 100.322 63.8708C99.9828 64.2224 100.005 64.2431 101.248 64.2431C102.424 64.2431 102.514 64.2224 102.198 63.9122C101.904 63.6639 101.836 63.064 101.836 60.9126V58.2441H103.621C104.955 58.2441 105.52 58.3268 105.768 58.5751C106.107 58.8647 106.13 58.8233 106.13 58.0372C106.13 57.2512 106.107 57.2098 105.768 57.4994C105.52 57.7476 104.955 57.8304 103.621 57.8304H101.836V55.5549V53.2794H103.938C105.475 53.2794 106.175 53.3621 106.537 53.6104C107.011 53.9 107.034 53.9 107.034 53.4035V52.8657H103.644C100.344 52.8657 100.254 52.8863 100.48 53.2587Z" fill="#225479"/>
<path d="M116.029 53.1139C116.232 53.3001 116.3 54.7688 116.3 58.4303C116.3 62.8365 116.255 63.5398 115.916 63.8708C115.577 64.2224 115.599 64.2431 116.865 64.2431C118.131 64.2431 118.153 64.2224 117.814 63.8708C117.475 63.5398 117.43 62.8572 117.43 58.5751C117.43 55.5963 117.52 53.5069 117.656 53.2587C117.882 52.8863 117.814 52.8657 116.82 52.8657C116.006 52.8657 115.825 52.9277 116.029 53.1139Z" fill="#225479"/>
<path d="M127.826 53.2587C127.962 53.5069 128.052 55.5549 128.052 58.4923C128.052 62.5262 127.984 63.395 127.69 63.788C127.351 64.2431 127.351 64.2431 128.301 64.2431C129.205 64.2431 129.227 64.2224 128.888 63.8708C128.549 63.5398 128.504 62.8778 128.504 58.844C128.527 54.6447 128.549 54.2516 128.866 54.624C129.046 54.8515 130.628 57.1064 132.369 59.6301C134.696 63.0226 135.668 64.2431 135.985 64.2431C136.211 64.2431 136.414 64.119 136.437 63.9742C136.437 63.8501 136.437 61.5332 136.414 58.844C136.414 55.9686 136.482 53.7552 136.617 53.4242C136.843 52.8863 136.821 52.8657 136.165 52.8657C135.578 52.8657 135.51 52.9277 135.713 53.1553C135.894 53.3414 135.962 54.8102 135.917 58.0579L135.849 62.671L132.459 57.7683C129.159 53.0105 129.046 52.8657 128.323 52.8657C127.668 52.8657 127.6 52.907 127.826 53.2587Z" fill="#225479"/>
<path d="M165.116 53.2587C165.252 53.5069 165.342 55.5549 165.342 58.4923C165.342 62.5262 165.274 63.395 164.98 63.788C164.641 64.2431 164.641 64.2431 165.591 64.2431C166.495 64.2431 166.517 64.2224 166.178 63.8708C165.839 63.5398 165.794 62.8778 165.794 58.844C165.817 54.6447 165.839 54.2516 166.156 54.624C166.336 54.8515 167.918 57.1063 169.659 59.6301C171.986 63.0226 172.958 64.2431 173.275 64.2431C173.772 64.2431 173.749 64.6362 173.704 58.2234C173.681 55.7824 173.772 53.7552 173.907 53.4242C174.133 52.8863 174.111 52.8656 173.455 52.8656C172.868 52.8656 172.8 52.9277 173.003 53.1553C173.184 53.3414 173.252 54.8308 173.207 58.0579L173.139 62.6916L169.749 57.789C166.449 53.0104 166.336 52.8656 165.613 52.8656C164.958 52.8656 164.89 52.907 165.116 53.2587Z" fill="#225479"/>
<path d="M202.858 53.2587C202.994 53.5069 203.084 55.5549 203.084 58.4923C203.084 62.5262 203.016 63.395 202.722 63.788L202.383 64.2431H206.112H209.864V63.4777V62.7123L209.412 63.1674C208.983 63.5812 208.711 63.6225 206.587 63.6225H204.214V60.9333V58.2441H205.999C207.333 58.2441 207.898 58.3268 208.146 58.5751C208.485 58.8647 208.508 58.8233 208.508 58.0372C208.508 57.2512 208.485 57.2098 208.146 57.4994C207.898 57.7476 207.333 57.8304 205.999 57.8304H204.214V55.5549V53.2794H206.316C207.853 53.2794 208.553 53.3621 208.915 53.6104C209.389 53.9 209.412 53.9 209.412 53.4035V52.8657H206.022C202.722 52.8657 202.632 52.8863 202.858 53.2587Z" fill="#225479"/>
<path d="M150.494 53.7345C149.567 56.3616 146.313 63.7673 145.974 63.9742C145.657 64.2018 145.725 64.2431 146.539 64.2431C147.398 64.2431 147.488 64.2018 147.285 63.8708C147.149 63.6225 147.33 62.8985 147.917 61.347L148.776 59.175H150.539H152.302L153.183 61.347C153.884 63.0433 154.019 63.6019 153.839 63.8708C153.613 64.2018 153.703 64.2431 154.833 64.2431C156.031 64.2431 156.053 64.2224 155.669 63.8708C155.443 63.6639 154.313 61.1402 153.138 58.2855C151.985 55.4101 150.968 53.0725 150.878 53.0725C150.788 53.0725 150.629 53.3828 150.494 53.7345ZM151.398 56.7547C151.737 57.6442 152.008 58.4303 152.008 58.513C152.008 58.5958 151.353 58.6578 150.539 58.6578C149.725 58.6578 149.07 58.5751 149.07 58.4717C149.07 58.2855 150.155 55.5756 150.336 55.3066C150.584 54.9343 150.788 55.2239 151.398 56.7547Z" fill="#225479"/>
</svg>
